<?xml version="1.0" encoding="UTF-8"?>
<svg id="Camada_2" data-name="Camada 2" xmlns="http://www.w3.org/2000/svg" viewBox="0 0 177.96 126.82">
  <defs>
    <style>
      .cls-1 {
        fill: #f4a6a2;
        stroke-width: 0px;
      }
    </style>
  </defs>
  <g id="Camada_1-2" data-name="Camada 1">
    <g>
      <path class="cls-1" d="M129.66,121.31c1.16.95,8.73,6.94,19.08,5.19,12.18-2.05,17.28-12.96,17.73-13.95,3.06-6.84,1.91-13.09,1.48-15.03-1.58-7.07-5.86-11.3-7.43-12.71,2.4-.71,8.1-2.74,12.41-8.28,5.43-6.97,6.74-17.05,2.59-25.48-4.45-9.04-14.35-14.44-24.74-13.41-1.13-18.51-14.33-33.72-31.39-36.99-14.43-2.76-29.55,3.42-38.69,15.78-2.09-1.73-13.79-11.08-30.1-9.03-3.36.42-13.06,2.11-21.44,10.16-12.23,11.74-11.78,27.53-11.66,30.1-1.33.38-11.54,3.5-15.8,13.92-3.35,8.2-.83,15.55,0,17.68,4.17,10.68,14.34,14.2,15.8,14.67-.79,2.1-3.03,8.84-.38,16.55,2.72,7.9,9.71,14.3,18.43,15.8,9.71,1.67,17.03-3.51,18.43-4.54,0-7.22.02-14.44.02-21.66,1.78-.2,10.73-1.38,16.73-9.22,3.67-4.79,4.49-9.79,4.72-12.16,1.17.09,5.13.27,9.02-2.36,4.18-2.82,5.43-6.96,5.72-8.03,1.19,3.33,4.79,12.04,13.96,18.64,10.86,7.81,22.26,7.44,25.53,7.22v27.14Z"/>
      <path class="cls-1" d="M124.15,104.31c-1.06.47-2.05.77-2.88.95-.94-1.08-2.84-2.97-5.84-4.13-4.57-1.76-8.66-.63-10.2-.1-1.14.39-3.82,1.35-6.1,3.95-1.53,1.74-2.37,3.65-2.83,5.36-.16.58.28,1.16.89,1.16.29,0,.57-.14.74-.38.75-1.04,1.74-2.11,3.02-3.07.55-.41,2.81-2.05,6.26-2.71,1.09-.21,3.38-.62,6.18.07,3.27.8,5.37,2.64,6.55,3.7.53.47.99.94,1.39,1.38.59.66,1.64.57,2.12-.17v-.02c1.19-1.82,1.94-2.98,2.64-4.3.49-.93,1.14-2.28,1.76-4.03-.86.73-2.08,1.61-3.69,2.32"/>
      <path class="cls-1" d="M85.04,104.99c-2.28-2.6-4.96-3.56-6.1-3.95-1.54-.53-5.62-1.66-10.2.1-3.01,1.15-4.91,3.04-5.84,4.12-.83-.19-1.82-.48-2.88-.95-1.61-.72-2.84-1.59-3.7-2.32.61,1.74,1.26,3.09,1.76,4.02.7,1.32,1.45,2.48,2.62,4.3v.02c.49.74,1.54.83,2.14.17.4-.44.86-.91,1.39-1.38,1.18-1.06,3.28-2.89,6.55-3.7,2.81-.69,5.09-.28,6.18-.07,3.44.66,5.71,2.3,6.26,2.71,1.28.96,2.26,2.04,3.02,3.07.17.24.45.38.74.38.6,0,1.04-.57.89-1.16-.46-1.71-1.3-3.61-2.82-5.36"/>
    </g>
  </g>
</svg>