<?xml version="1.0" encoding="UTF-8"?>
<svg id="Camada_2" data-name="Camada 2" xmlns="http://www.w3.org/2000/svg" viewBox="0 0 423.15 301.54">
  <defs>
    <style>
      .cls-1 {
        fill: #1e1f1c;
        stroke-width: 0px;
      }
    </style>
  </defs>
  <g id="Camada_1-2" data-name="Camada 1">
    <g>
      <path class="cls-1" d="M308.31,288.45c2.76,2.26,20.76,16.49,45.37,12.35,28.96-4.88,41.1-30.82,42.15-33.18,7.27-16.26,4.53-31.14,3.51-35.73-3.76-16.81-13.94-26.86-17.66-30.22,5.7-1.68,19.25-6.53,29.5-19.7,12.91-16.58,16.04-40.53,6.16-60.58-10.59-21.5-34.11-34.33-58.82-31.9-2.68-44-34.06-80.19-74.65-87.95-34.32-6.57-70.28,8.14-92,37.53-4.98-4.12-32.79-26.35-71.56-21.47-8,1.01-31.05,5.01-50.99,24.15-29.08,27.92-28.01,65.46-27.73,71.56-3.17.91-27.44,8.32-37.57,33.1-7.97,19.49-1.97,36.98,0,42.04,9.91,25.38,34.1,33.75,37.57,34.89-1.88,4.99-7.2,21.03-.89,39.36,6.46,18.78,23.09,34,43.83,37.57,23.1,3.98,40.49-8.35,43.81-10.8.02-17.17.03-34.34.05-51.51,4.24-.47,25.51-3.28,39.77-21.92,8.72-11.39,10.67-23.28,11.21-28.91,2.78.22,12.2.64,21.44-5.61,9.95-6.72,12.91-16.55,13.59-19.1,2.82,7.93,11.39,28.63,33.2,44.32,25.81,18.57,52.93,17.7,60.7,17.18v64.53Z"/>
      <path class="cls-1" d="M295.2,248.02c-2.52,1.12-4.86,1.82-6.84,2.26-2.22-2.57-6.74-7.07-13.89-9.81-10.88-4.17-20.58-1.5-24.25-.23-2.71.93-9.09,3.22-14.5,9.4-3.63,4.15-5.63,8.68-6.72,12.74-.37,1.39.67,2.75,2.11,2.75.7,0,1.35-.33,1.76-.89,1.79-2.47,4.13-5.02,7.17-7.31,1.3-.97,6.69-4.88,14.88-6.44,2.59-.49,8.03-1.47,14.7.17,7.77,1.91,12.76,6.27,15.57,8.79,1.26,1.13,2.36,2.25,3.3,3.29,1.41,1.56,3.91,1.36,5.05-.41l.03-.05c2.79-4.33,4.57-7.08,6.23-10.22,1.17-2.21,2.72-5.43,4.18-9.57-2.04,1.73-4.96,3.82-8.79,5.52"/>
      <path class="cls-1" d="M202.22,249.63c-5.41-6.17-11.79-8.46-14.5-9.4-3.67-1.26-13.37-3.94-24.24.23-7.15,2.74-11.67,7.24-13.89,9.81-1.98-.44-4.32-1.14-6.84-2.26-3.83-1.7-6.74-3.79-8.79-5.52,1.46,4.14,3,7.36,4.18,9.57,1.66,3.13,3.44,5.89,6.23,10.22l.03.05c1.14,1.77,3.65,1.97,5.05.4.94-1.05,2.04-2.16,3.3-3.29,2.81-2.52,7.81-6.88,15.57-8.79,6.67-1.64,12.11-.67,14.7-.17,8.19,1.56,13.58,5.46,14.88,6.44,3.04,2.29,5.38,4.84,7.17,7.31.41.56,1.06.89,1.76.89,1.44,0,2.48-1.36,2.11-2.75-1.09-4.06-3.09-8.59-6.72-12.74"/>
    </g>
  </g>
</svg>